<svg width="360" height="360" viewBox="0 0 31 14" fill="none" xmlns="http://www.w3.org/2000/svg">
<path d="M10.588 13.732C10.508 13.732 10.456 13.716 10.432 13.684C10.408 13.66 10.396 13.632 10.396 13.6C10.54 13.576 10.68 13.468 10.816 13.276C10.952 13.092 11.02 12.876 11.02 12.628C11.02 12.236 10.892 11.856 10.636 11.488C10.38 11.128 10.02 10.796 9.556 10.492C9.092 10.188 8.548 9.928 7.924 9.712C7.308 9.488 6.632 9.324 5.896 9.22C5.624 9.604 5.316 9.956 4.972 10.276C4.636 10.604 4.26 10.864 3.844 11.056C3.436 11.256 2.992 11.356 2.512 11.356C2.008 11.356 1.624 11.24 1.36 11.008C1.096 10.776 0.964 10.508 0.964 10.204C0.964 9.924 1.076 9.644 1.3 9.364C1.532 9.076 1.88 8.84 2.344 8.656C2.816 8.464 3.412 8.368 4.132 8.368C4.684 8.368 5.244 8.416 5.812 8.512C6.012 8.16 6.192 7.808 6.352 7.456C6.512 7.104 6.652 6.772 6.772 6.46C5.98 6.428 5.356 6.308 4.9 6.1C4.444 5.884 4.12 5.616 3.928 5.296C3.736 4.976 3.64 4.648 3.64 4.312C3.64 3.888 3.768 3.488 4.024 3.112C4.28 2.728 4.628 2.416 5.068 2.176C5.508 1.936 6 1.816 6.544 1.816C6.608 1.816 6.648 1.84 6.664 1.888C6.68 1.936 6.688 1.976 6.688 2.008C6.384 2.008 6.088 2.076 5.8 2.212C5.52 2.348 5.268 2.532 5.044 2.764C4.82 2.988 4.64 3.24 4.504 3.52C4.376 3.8 4.312 4.088 4.312 4.384C4.312 4.672 4.388 4.956 4.54 5.236C4.692 5.508 4.952 5.736 5.32 5.92C5.688 6.104 6.204 6.204 6.868 6.22C6.94 6.036 7 5.868 7.048 5.716C7.104 5.556 7.152 5.42 7.192 5.308C7.384 4.732 7.588 4.16 7.804 3.592C8.028 3.024 8.28 2.508 8.56 2.044C8.848 1.58 9.188 1.208 9.58 0.927999C9.972 0.648 10.44 0.508 10.984 0.508C11.336 0.508 11.608 0.608 11.8 0.808C12 1.008 12.1 1.284 12.1 1.636C12.1 1.98 12.02 2.36 11.86 2.776C11.7 3.184 11.476 3.592 11.188 4C10.9 4.408 10.56 4.788 10.168 5.14C9.776 5.492 9.348 5.784 8.884 6.016C8.42 6.248 7.932 6.392 7.42 6.448C7.3 6.704 7.148 7.028 6.964 7.42C6.78 7.804 6.56 8.2 6.304 8.608C7 8.768 7.656 8.984 8.272 9.256C8.896 9.528 9.444 9.836 9.916 10.18C10.396 10.532 10.772 10.904 11.044 11.296C11.316 11.696 11.452 12.092 11.452 12.484C11.452 12.836 11.364 13.132 11.188 13.372C11.012 13.612 10.812 13.732 10.588 13.732ZM10.984 1.12C10.64 1.12 10.316 1.272 10.012 1.576C9.708 1.872 9.416 2.268 9.136 2.764C8.864 3.252 8.596 3.796 8.332 4.396C8.068 4.996 7.804 5.592 7.54 6.184C8.012 6.12 8.452 5.976 8.86 5.752C9.268 5.528 9.64 5.256 9.976 4.936C10.312 4.608 10.6 4.26 10.84 3.892C11.08 3.524 11.264 3.164 11.392 2.812C11.52 2.452 11.584 2.132 11.584 1.852C11.584 1.628 11.536 1.452 11.44 1.324C11.344 1.188 11.192 1.12 10.984 1.12ZM1.264 10.372C1.264 10.572 1.372 10.744 1.588 10.888C1.804 11.04 2.112 11.116 2.512 11.116C3.104 11.116 3.64 10.924 4.12 10.54C4.6 10.164 5.028 9.704 5.404 9.16C4.98 9.12 4.556 9.1 4.132 9.1C3.476 9.1 2.936 9.168 2.512 9.304C2.088 9.432 1.772 9.596 1.564 9.796C1.364 9.988 1.264 10.18 1.264 10.372ZM10.6458 10C10.5578 10 10.4498 9.98 10.3218 9.94C10.2018 9.9 10.0938 9.828 9.99784 9.724C9.90984 9.612 9.86584 9.448 9.86584 9.232C9.86584 9.024 9.93384 8.784 10.0698 8.512C10.2058 8.24 10.3258 8 10.4298 7.792C10.3418 7.792 10.2978 7.756 10.2978 7.684C10.3058 7.66 10.3418 7.584 10.4058 7.456C10.4698 7.328 10.5458 7.176 10.6338 7C10.7218 6.824 10.8058 6.656 10.8858 6.496C10.9738 6.328 11.0418 6.2 11.0898 6.112C11.1858 5.936 11.3378 5.848 11.5458 5.848H12.2898C12.1538 5.952 12.0298 6.068 11.9178 6.196C11.8138 6.316 11.6818 6.54 11.5218 6.868C11.5218 6.868 11.4938 6.924 11.4378 7.036C11.3818 7.148 11.3098 7.292 11.2218 7.468C11.1418 7.636 11.0578 7.808 10.9698 7.984C10.8898 8.16 10.8218 8.308 10.7658 8.428C10.6618 8.652 10.5938 8.832 10.5618 8.968C10.5298 9.096 10.5138 9.216 10.5138 9.328C10.5138 9.592 10.6018 9.724 10.7778 9.724C10.9698 9.724 11.2018 9.568 11.4738 9.256C11.6978 8.992 11.9178 8.676 12.1338 8.308C12.3498 7.94 12.5538 7.56 12.7458 7.168C12.9458 6.776 13.1218 6.424 13.2738 6.112C13.3618 5.936 13.5178 5.848 13.7418 5.848H14.4018C14.2258 5.992 14.0458 6.208 13.8618 6.496C13.6858 6.784 13.4898 7.152 13.2738 7.6C13.2178 7.72 13.1458 7.872 13.0578 8.056C12.9698 8.24 12.8898 8.436 12.8178 8.644C12.7538 8.852 12.7218 9.06 12.7218 9.268C12.7218 9.548 12.8218 9.688 13.0218 9.688C13.2938 9.688 13.5578 9.5 13.8138 9.124C14.0698 8.748 14.3218 8.268 14.5698 7.684C14.6338 7.684 14.6698 7.688 14.6778 7.696C14.6938 7.704 14.7058 7.736 14.7138 7.792C14.6258 8.008 14.5178 8.244 14.3898 8.5C14.2698 8.748 14.1298 8.988 13.9698 9.22C13.8178 9.452 13.6458 9.64 13.4538 9.784C13.2698 9.928 13.0658 10 12.8418 10C12.6418 10 12.4778 9.928 12.3498 9.784C12.2218 9.632 12.1578 9.42 12.1578 9.148C12.1578 8.932 12.1978 8.7 12.2778 8.452C12.1418 8.692 11.9858 8.932 11.8098 9.172C11.6338 9.412 11.4458 9.612 11.2458 9.772C11.0458 9.924 10.8458 10 10.6458 10ZM13.4232 10.096C13.7112 9.512 13.9872 8.936 14.2512 8.368C14.5152 7.792 14.7872 7.244 15.0672 6.724C15.2272 6.436 15.3632 6.236 15.4752 6.124C15.5872 6.004 15.7352 5.944 15.9192 5.944C15.9832 5.944 16.0512 5.956 16.1232 5.98C16.1952 5.996 16.2672 6.004 16.3392 6.004C16.3872 6.004 16.4232 6 16.4472 5.992C16.3352 6.056 16.1872 6.216 16.0032 6.472C15.8272 6.72 15.6472 7.008 15.4632 7.336C15.2792 7.664 15.1152 7.972 14.9712 8.26C15.1232 8.076 15.2832 7.892 15.4512 7.708C15.6192 7.524 15.8032 7.348 16.0032 7.18C16.1952 7.012 16.4232 6.84 16.6872 6.664C16.9592 6.48 17.2232 6.328 17.4792 6.208C17.7352 6.088 17.9392 6.028 18.0912 6.028C18.1472 6.028 18.1872 6.032 18.2112 6.04C18.2112 6.04 18.1672 6.12 18.0792 6.28C17.9912 6.432 17.8792 6.636 17.7432 6.892C17.6152 7.14 17.4832 7.408 17.3472 7.696C17.2112 7.976 17.0872 8.248 16.9752 8.512C16.8712 8.768 16.8032 8.984 16.7712 9.16C16.7472 9.264 16.7352 9.36 16.7352 9.448C16.7352 9.576 16.7592 9.66 16.8072 9.7C16.8552 9.74 16.9072 9.76 16.9632 9.76C17.1152 9.76 17.2712 9.692 17.4312 9.556C17.5912 9.42 17.7432 9.248 17.8872 9.04C18.0392 8.824 18.1792 8.596 18.3072 8.356C18.4352 8.116 18.5432 7.892 18.6312 7.684C18.7272 7.684 18.7752 7.72 18.7752 7.792C18.6872 8.008 18.5752 8.248 18.4392 8.512C18.3112 8.768 18.1632 9.012 17.9952 9.244C17.8352 9.476 17.6552 9.668 17.4552 9.82C17.2552 9.972 17.0392 10.048 16.8072 10.048C16.6472 10.048 16.4792 9.992 16.3032 9.88C16.1352 9.768 16.0512 9.56 16.0512 9.256C16.0512 9.168 16.0592 9.076 16.0752 8.98C16.0912 8.876 16.1192 8.764 16.1592 8.644C16.2232 8.484 16.2992 8.312 16.3872 8.128C16.4752 7.944 16.6192 7.692 16.8192 7.372C16.8752 7.284 16.9072 7.216 16.9152 7.168C16.9312 7.12 16.9392 7.08 16.9392 7.048C16.9392 6.952 16.8952 6.904 16.8072 6.904C16.7352 6.904 16.6272 6.944 16.4832 7.024C16.3472 7.104 16.1752 7.244 15.9672 7.444C15.7672 7.636 15.5272 7.908 15.2472 8.26C14.9752 8.612 14.6592 9.132 14.2992 9.82C14.2432 9.924 14.1792 9.98 14.1072 9.988C14.0432 9.996 13.9512 10.004 13.8312 10.012C13.7512 10.02 13.6752 10.024 13.6032 10.024C13.5312 10.032 13.4712 10.056 13.4232 10.096ZM21.3779 10C21.1059 10 20.9059 9.908 20.7779 9.724C20.6499 9.54 20.5859 9.324 20.5859 9.076C20.5859 9.004 20.5899 8.932 20.5979 8.86C20.6059 8.78 20.6219 8.7 20.6459 8.62C20.5339 8.796 20.4019 8.992 20.2499 9.208C20.1059 9.416 19.9379 9.6 19.7459 9.76C19.5619 9.912 19.3539 9.988 19.1219 9.988C19.0179 9.988 18.8979 9.964 18.7619 9.916C18.6339 9.868 18.5179 9.776 18.4139 9.64C18.3179 9.504 18.2699 9.304 18.2699 9.04C18.2699 8.696 18.3459 8.332 18.4979 7.948C18.6499 7.564 18.8579 7.204 19.1219 6.868C19.3859 6.524 19.6859 6.248 20.0219 6.04C20.3579 5.824 20.7059 5.716 21.0659 5.716C21.3539 5.716 21.6259 5.792 21.8819 5.944C22.0019 5.72 22.1299 5.472 22.2659 5.2C22.4019 4.92 22.5379 4.644 22.6739 4.372C22.8099 4.1 22.9299 3.852 23.0339 3.628C23.1379 3.396 23.2179 3.22 23.2739 3.1C23.3939 2.82 23.5059 2.644 23.6099 2.572C23.7219 2.492 23.8539 2.452 24.0059 2.452C24.0939 2.452 24.1899 2.464 24.2939 2.488C24.4059 2.504 24.5139 2.508 24.6179 2.5C24.5779 2.54 24.4859 2.672 24.3419 2.896C24.1979 3.12 24.0219 3.412 23.8139 3.772C23.6059 4.124 23.3819 4.512 23.1419 4.936C22.9099 5.36 22.6779 5.796 22.4459 6.244C22.2219 6.684 22.0139 7.108 21.8219 7.516C21.6299 7.924 21.4779 8.284 21.3659 8.596C21.2539 8.908 21.1979 9.144 21.1979 9.304C21.1979 9.408 21.2219 9.5 21.2699 9.58C21.3179 9.652 21.3979 9.688 21.5099 9.688C21.6619 9.688 21.8179 9.612 21.9779 9.46C22.1379 9.308 22.2899 9.12 22.4339 8.896C22.5859 8.664 22.7179 8.44 22.8299 8.224C22.9499 8 23.0379 7.82 23.0939 7.684C23.1899 7.684 23.2379 7.72 23.2379 7.792C23.1659 7.96 23.0699 8.168 22.9499 8.416C22.8299 8.664 22.6899 8.908 22.5299 9.148C22.3699 9.388 22.1899 9.592 21.9899 9.76C21.7979 9.92 21.5939 10 21.3779 10ZM19.2059 9.64C19.3179 9.64 19.4579 9.58 19.6259 9.46C19.7939 9.332 19.9739 9.132 20.1659 8.86C20.3899 8.54 20.6459 8.14 20.9339 7.66C21.2219 7.18 21.5059 6.672 21.7859 6.136C21.7299 6.088 21.6699 6.052 21.6059 6.028C21.5419 6.004 21.4539 5.992 21.3419 5.992C21.1579 5.992 20.9539 6.072 20.7299 6.232C20.5139 6.384 20.2939 6.584 20.0699 6.832C19.8539 7.08 19.6539 7.348 19.4699 7.636C19.2939 7.924 19.1499 8.204 19.0379 8.476C18.9339 8.74 18.8819 8.968 18.8819 9.16C18.8819 9.48 18.9899 9.64 19.2059 9.64ZM23.9587 10.048C23.6627 10.048 23.3947 9.952 23.1547 9.76C22.9227 9.568 22.8067 9.276 22.8067 8.884C22.8067 8.556 22.8787 8.208 23.0227 7.84C23.1747 7.472 23.3707 7.128 23.6107 6.808C23.8587 6.48 24.1307 6.216 24.4267 6.016C24.7307 5.808 25.0347 5.704 25.3387 5.704C25.4907 5.704 25.6387 5.748 25.7827 5.836C25.9267 5.924 25.9987 6.076 25.9987 6.292C25.9987 6.492 25.9227 6.712 25.7707 6.952C25.6187 7.192 25.4027 7.416 25.1227 7.624C25.0027 7.712 24.8507 7.796 24.6667 7.876C24.4827 7.956 24.2987 8.024 24.1147 8.08C23.9307 8.128 23.7787 8.152 23.6587 8.152C23.6187 8.248 23.5787 8.376 23.5387 8.536C23.5067 8.696 23.4907 8.86 23.4907 9.028C23.4907 9.228 23.5307 9.408 23.6107 9.568C23.6907 9.728 23.8387 9.808 24.0547 9.808C24.3187 9.808 24.5627 9.732 24.7867 9.58C25.0187 9.428 25.2227 9.236 25.3987 9.004C25.5827 8.772 25.7387 8.536 25.8667 8.296C25.9947 8.056 26.0947 7.852 26.1667 7.684C26.2627 7.684 26.3107 7.72 26.3107 7.792C26.2067 8.016 26.0867 8.26 25.9507 8.524C25.8227 8.788 25.6667 9.036 25.4827 9.268C25.3067 9.492 25.0907 9.68 24.8347 9.832C24.5867 9.976 24.2947 10.048 23.9587 10.048ZM23.7427 7.936C23.8547 7.936 24.0427 7.896 24.3067 7.816C24.5707 7.728 24.8107 7.592 25.0267 7.408C25.2347 7.224 25.3947 7.024 25.5067 6.808C25.6187 6.584 25.6747 6.396 25.6747 6.244C25.6747 6.068 25.6107 5.98 25.4827 5.98C25.3867 5.98 25.2547 6.044 25.0867 6.172C24.9187 6.3 24.7107 6.516 24.4627 6.82C24.3107 7.012 24.1667 7.22 24.0307 7.444C23.8947 7.668 23.7987 7.832 23.7427 7.936ZM26.561 10.084C26.313 10.084 26.141 10.02 26.045 9.892C25.949 9.764 25.901 9.6 25.901 9.4C25.901 9.192 25.937 8.956 26.009 8.692C26.081 8.428 26.177 8.132 26.297 7.804C26.209 7.804 26.165 7.764 26.165 7.684C26.229 7.524 26.297 7.344 26.369 7.144C26.449 6.936 26.489 6.704 26.489 6.448C26.489 6.32 26.473 6.212 26.441 6.124C26.409 6.036 26.361 5.984 26.297 5.968C26.297 5.968 26.337 5.96 26.417 5.944C26.505 5.928 26.597 5.912 26.693 5.896C26.789 5.88 26.853 5.872 26.885 5.872C26.933 5.864 26.977 5.86 27.017 5.86C27.057 5.852 27.093 5.848 27.125 5.848C27.205 5.848 27.257 5.88 27.281 5.944C27.313 6.008 27.325 6.148 27.317 6.364C27.309 6.564 27.269 6.808 27.197 7.096C27.125 7.376 27.049 7.62 26.969 7.828C26.865 8.1 26.769 8.376 26.681 8.656C26.593 8.936 26.549 9.168 26.549 9.352C26.549 9.512 26.593 9.616 26.681 9.664C26.745 9.688 26.801 9.7 26.849 9.7C27.033 9.7 27.213 9.612 27.389 9.436C27.565 9.26 27.729 9.048 27.881 8.8C28.041 8.544 28.173 8.3 28.277 8.068C28.229 7.884 28.205 7.664 28.205 7.408C28.205 7.136 28.237 6.86 28.301 6.58C28.365 6.3 28.465 6.068 28.601 5.884C28.737 5.692 28.913 5.596 29.129 5.596C29.281 5.596 29.357 5.664 29.357 5.8C29.357 5.832 29.317 5.968 29.237 6.208C29.165 6.448 29.069 6.732 28.949 7.06C28.829 7.388 28.701 7.704 28.565 8.008C28.533 8.072 28.505 8.136 28.481 8.2C28.513 8.336 28.573 8.448 28.661 8.536C28.749 8.616 28.857 8.656 28.985 8.656C29.145 8.656 29.293 8.584 29.429 8.44C29.573 8.288 29.721 8.036 29.873 7.684C29.969 7.684 30.017 7.72 30.017 7.792C29.889 8.112 29.733 8.368 29.549 8.56C29.373 8.752 29.173 8.848 28.949 8.848C28.677 8.848 28.481 8.708 28.361 8.428C28.225 8.708 28.065 8.976 27.881 9.232C27.697 9.48 27.493 9.684 27.269 9.844C27.053 10.004 26.817 10.084 26.561 10.084Z" fill="black"/>
</svg>
